# xmcd CD database file
#
# Track frame offsets:
#	150
#	21903
#	40838
#
# Disc length: 815 seconds
#
# Revision: 0
# Processed by: cddbd v1.5PL3 Copyright (c) Steve Scherf et al.
# Submitted via: CDex 1.50beta8
#
DISCID=1c032d03
DTITLE=ポルノグラフィティ - 渦
DYEAR=2003
DGENRE=Pop
TTITLE0=渦
TTITLE1=ワールド☆サタデーグラフティ
TTITLE2=蝙蝠
EXTD=YEAR: 2003
EXTT0=
EXTT1=
EXTT2=
PLAYORDER=
